PathFileType	4	(X/Y/Z)	pose_F01_0-91.trc
DataRate	CameraRate	NumFrames	NumMarkers	Units	OrigDataRate	OrigDataStartFrame	OrigNumFrames
30	30	6	21	m	30	45	91
Frame#	Time	CHip			RHip			RKnee			RAnkle			RBigToe			RSmallToe			RHeel			LHip			LKnee			LAnkle			LBigToe			LSmallToe			LHeel			Neck			Nose			RShoulder			RElbow			RWrist			LShoulder			LElbow			LWrist			
		X1	Y1	Z1	X2	Y2	Z2	X3	Y3	Z3	X4	Y4	Z4	X5	Y5	Z5	X6	Y6	Z6	X7	Y7	Z7	X8	Y8	Z8	X9	Y9	Z9	X10	Y10	Z10	X11	Y11	Z11	X12	Y12	Z12	X13	Y13	Z13	X14	Y14	Z14	X15	Y15	Z15	X16	Y16	Z16	X17	Y17	Z17	X18	Y18	Z18	X19	Y19	Z19	X20	Y20	Z20	X21	Y21	Z21	
45	1.5	-0.1988009308067494	1.8899235443573148	-0.5851938714380998	-0.20872330834897648	1.8868195967103119	-0.5144084460435315	-0.20274625976792546	1.7356205042909418	-0.5052677147254928	-0.2021790722206087	1.5859204680801169	-0.4835074353583523	-0.23209402452564204	1.544979381370908	-0.4558699378329105	-0.2277921727814779	1.551967488946171	-0.42965912853099986	-0.19902992893526403	1.577260573847737	-0.4949680005840373	-0.183881269271802	1.8946742547140385	-0.6519157587357857	-0.1838703854286368	1.737349723652127	-0.6342719994462332	-0.18013935142132909	1.585413012983909	-0.6121171877014119	-0.2005278907966824	1.5412089458153224	-0.6333861890586463	-0.18942787050154655	1.5495921927955327	-0.6619181957486092	-0.17607029673299066	1.5738584767080477	-0.5979192956051826	-0.1902751091995438	2.0548296551534517	-0.6057326318625623	-0.2142952524894509	2.1173889560427663	-0.6009955888118587	-0.20368653186875987	2.0493607427644847	-0.5124779756254952	-0.21498935413658768	1.9538470548810798	-0.4638410844287264	-0.2196883161922058	1.8741459550597301	-0.43403757946786314	-0.17013109141234237	2.060129522656473	-0.7027442400978681	-0.19557775642926728	2.011210197437453	-0.7119867759267642	-0.2563435368954437	1.9997065076373592	-0.6644016386012751
46	1.5333333333333334	-0.20128657486601587	1.884869001716881	-0.5822857035221363	-0.2110039384878371	1.880330475274882	-0.5111514548744154	-0.2018675477547427	1.732794994735747	-0.50159081003696	-0.20160134629090837	1.5859384630460582	-0.47941428753514	-0.2340481763541529	1.5444680524308827	-0.45348248780762757	-0.2266953348635412	1.5515298640399922	-0.42614304082275056	-0.19736738669704318	1.5768788901874813	-0.4961293601521016	-0.18508144116590292	1.8883397541515	-0.6541244760463107	-0.18411251333556222	1.733282651992015	-0.6335513182902399	-0.18086187954064223	1.5840570697841152	-0.6155700579503184	-0.2000663192807118	1.5413354985545409	-0.6293138586728438	-0.18639801759960442	1.549688105047999	-0.6609541367146446	-0.17908667184011684	1.5737415109132518	-0.599036951118529	-0.1903874413341665	2.053708100782496	-0.6057016214348651	-0.21434271775325206	2.117390823156385	-0.6009170498568236	-0.20469832057497203	2.0491896837122963	-0.5072825892835089	-0.21498935413658768	1.9538470548810798	-0.4638410844287264	-0.2196883161922058	1.8741459550597301	-0.43403757946786314	-0.17153545584728647	2.0589334206949172	-0.6977202085839328	-0.19472041470586027	2.007886050018031	-0.7080986036391664	-0.2586842952439979	1.9999975176885056	-0.6537884344275425
47	1.5666666666666667	-0.2006962774964874	1.886807211488136	-0.5824264170682317	-0.21048362769447718	1.8837650773291839	-0.5116568519248818	-0.20168484566060793	1.7313953867744412	-0.5015803522808264	-0.20134599332898115	1.5871708521851728	-0.4799953932352236	-0.2287471136084763	1.5464764195724066	-0.45507065041520156	-0.2245833964862574	1.5515808355276022	-0.4282452247345601	-0.19694177331829663	1.5769710212381982	-0.4970335243729045	-0.18581448794172883	1.8917107715758783	-0.6491461833390457	-0.18405450465754172	1.735806674331456	-0.6338937318711337	-0.1780354110361457	1.5855529711693013	-0.614336659352385	-0.2005551702630342	1.5412179355854356	-0.6333923170657119	-0.1894156452417537	1.549499822026355	-0.6618970268777311	-0.1739485239175229	1.5741539566849887	-0.6001814979656438	-0.19153908200585257	2.053537839161618	-0.6005292837330984	-0.21429168278863422	2.1173918951046415	-0.6009190544430886	-0.20465368969435827	2.0478630369411768	-0.5067054998830667	-0.21498935413658768	1.9538470548810798	-0.4638410844287264	-0.2196883161922058	1.8741459550597301	-0.43403757946786314	-0.17367386249775063	2.0589032304255825	-0.6953822789706637	-0.1918846186471345	2.0088935492101605	-0.7080979075670416	-0.2632979045326928	1.9951549878949506	-0.64888986394754
48	1.6	-0.2010781767552271	1.8859834573225909	-0.582385570686121	-0.2106551218306548	1.8825888617280138	-0.5114841067058075	-0.2019034378896744	1.7299051316269063	-0.5011151546330485	-0.2023568973521573	1.584217638605585	-0.48287784971774855	-0.23087250289734484	1.5442888702944566	-0.4524293374516402	-0.2248656358451696	1.5527536288134485	-0.42806345387224765	-0.19994736231203053	1.5739767407225846	-0.49780779937052105	-0.18404195798462572	1.88946197122429	-0.6510574405760612	-0.18426561933283858	1.7318156643379563	-0.633201403107885	-0.17901402872655445	1.585524775397423	-0.6174872270615578	-0.19978402668535422	1.542672774095135	-0.629902002382493	-0.1864302544329823	1.5498073982370246	-0.6609753482721569	-0.17733330199834207	1.572892301511131	-0.6006186776223752	-0.1905331907581307	2.0544810439532215	-0.5972757353847744	-0.21344956640548535	2.1160031537191286	-0.5973978010143477	-0.2037418736572233	2.047775379974576	-0.5033797152338102	-0.2038991572065858	1.9621351923770505	-0.46448452016324965	-0.2196883161922058	1.8741459550597301	-0.43403757946786314	-0.17147586746821095	2.0589845305372876	-0.6975510975246825	-0.1919734090089697	2.0061674497373936	-0.7083040971662132	-0.26038961470557603	1.984588417665472	-0.6555212684502278
49	1.6333333333333333	-0.19911697750130414	1.886183599886995	-0.5846706432099541	-0.21179260990785728	1.883040550607128	-0.514839417836911	-0.2017754895129361	1.7313544367805425	-0.5015337328489172	-0.20017696539105193	1.5859899477041777	-0.4855653436858675	-0.23067874168826843	1.5456779225575696	-0.4532545728939978	-0.2247966688385068	1.5523114874413249	-0.42833708228615375	-0.19676174232248908	1.575817308570439	-0.49739045411556276	-0.1870411692411433	1.8909037468525323	-0.6523173572405248	-0.18412945101399333	1.733195977777969	-0.6334014605569044	-0.17897109747366732	1.585546914079006	-0.6174505385588598	-0.20071321888886048	1.5426128673661192	-0.6330510270025569	-0.18850449275590833	1.5494664600405132	-0.6587975285097345	-0.17612959952158536	1.5742299275421952	-0.5980843905813116	-0.18981110974726903	2.0532849386597047	-0.5943065951169685	-0.21536326204669448	2.115927396277954	-0.5951717654746379	-0.20769690900054055	2.046583623568561	-0.4991125501085963	-0.20865068468113301	1.970447644498474	-0.45577972059586774	-0.2022019379212339	1.9079645425175964	-0.416271091171217	-0.17075499154636564	2.060046206577442	-0.6950054532832052	-0.18618553091342743	1.993333042794169	-0.7143584524755289	-0.2523041852482443	1.9646417739920459	-0.670443338003611
50	1.6666666666666667	-0.20128486595484302	1.884955783789583	-0.5821986344315624	-0.2108866925667575	1.8828851542147507	-0.5115973646417153	-0.20369626075226327	1.7312169535849313	-0.4991931405305843	-0.20042633837433632	1.5875192358416776	-0.4853222717673042	-0.23205893771614555	1.54465825876271	-0.456031041288609	-0.22480283858282832	1.5521258517058165	-0.4283471936300253	-0.19699489357697295	1.57746764799662	-0.4971179024995365	-0.1864520459692577	1.8895250548596714	-0.6488547078537571	-0.1839538115032885	1.734532158749733	-0.6338239492097978	-0.1786990870900555	1.5869506119355516	-0.6181157031297408	-0.20042596323763223	1.5440122851750857	-0.6336459176040484	-0.18912196180770946	1.5508407969553235	-0.6624971971704718	-0.17577985942208857	1.575412194093895	-0.5986940752307199	-0.18979922272543695	2.0532067644643694	-0.59414403018087	-0.2144922673484334	2.1170448807839937	-0.5926253448074105	-0.2048692014142049	2.046531250228116	-0.49816837772148026	-0.2139502993872425	1.9696287255500433	-0.43798335915377623	-0.24209802966341637	1.9059313249515388	-0.3629176012014187	-0.17078907956444092	2.0577824768253525	-0.6945529840463647	-0.16368452761213942	1.9911702101181787	-0.7362068596411296	-0.2150321017298839	1.946433991543044	-0.7145476199324111
